<svg xmlns="http://www.w3.org/2000/svg" width="51" height="51" viewBox="0 0 51 51">
  <g id="Group_2108" data-name="Group 2108" transform="translate(12726 16737)">
    <g id="Rectangle_763" data-name="Rectangle 763" transform="translate(-12726 -16737)" fill="none" stroke="#fff" stroke-width="1">
      <rect width="51" height="51" rx="25.5" stroke="none"/>
      <rect x="0.5" y="0.5" width="50" height="50" rx="25" fill="none"/>
    </g>
    <g id="Group_2106" data-name="Group 2106" transform="translate(-13278.506 -16611.895)">
      <path id="Path_4806" data-name="Path 4806" d="M572.694-109.88a2.362,2.362,0,0,1-2.538,2.352,2.3,2.3,0,0,1-2.445-2.352,2.3,2.3,0,0,1,2.476-2.384A2.359,2.359,0,0,1,572.694-109.88Zm-4.859,19.345v-15.136h4.705v15.136Z" transform="translate(0)" fill="#fff"/>
      <path id="Path_4807" data-name="Path 4807" d="M583.144-94.368c0-1.888-.062-3.5-.123-4.828h4.085l.217,2.074h.093a5.541,5.541,0,0,1,4.674-2.414c3.1,0,5.417,2.043,5.417,6.5v8.977h-4.7v-8.388c0-1.95-.681-3.281-2.384-3.281a2.511,2.511,0,0,0-2.383,1.764,3.23,3.23,0,0,0-.186,1.176v8.729h-4.705Z" transform="translate(-7.789 -6.474)" fill="#fff"/>
    </g>
  </g>
</svg>
