<svg xmlns="http://www.w3.org/2000/svg" width="19.297" height="19.283" viewBox="0 0 19.297 19.283">
  <path id="Path_3749" data-name="Path 3749" d="M2652.036,889.534a9.648,9.648,0,1,1-9.612-9.668A9.634,9.634,0,0,1,2652.036,889.534Zm-14.663.408a9.9,9.9,0,0,0,1.414,4.721l3.164-.592v-4.129Zm5.45,4.126,3.17.594a9.9,9.9,0,0,0,1.41-4.718h-4.58Zm-4.012-9.76a9.919,9.919,0,0,0-1.435,4.76h4.573a.73.73,0,0,0,.018-.111c0-1.3,0-2.605.006-3.908,0-.165-.084-.183-.21-.2-.456-.049-.915-.079-1.364-.164C2639.872,884.589,2639.354,884.44,2638.812,884.308Zm4.014,4.758h4.579a9.881,9.881,0,0,0-1.414-4.711l-3.165.592Zm5.423,0h2.937a8.838,8.838,0,0,0-2.764-5.974l-1.66.908A10.912,10.912,0,0,1,2648.249,889.065Zm-11.89-5.974a8.829,8.829,0,0,0-2.764,5.974h2.937a10.925,10.925,0,0,1,1.485-5.067Zm-2.758,6.851a8.785,8.785,0,0,0,2.768,5.975l1.649-.9a10.914,10.914,0,0,1-1.486-5.074Zm14.729,0c-.176.9-.282,1.785-.53,2.625s-.638,1.655-.968,2.484l1.588.87a8.833,8.833,0,0,0,2.765-5.98Zm-2.894-6.318.006-.1a9.875,9.875,0,0,0-2.61-2.452v3.01Zm-3.485,11.366a9.576,9.576,0,0,0-2.633.468,9.951,9.951,0,0,0,2.633,2.482Zm-2.636-11.437a9.4,9.4,0,0,0,2.627.463v-2.944A10.088,10.088,0,0,0,2639.314,883.555Zm3.512,11.374v3.016a10,10,0,0,0,2.676-2.544Zm3.495.826c-.378.448-.713.882-1.09,1.277s-.782.737-1.2,1.124a8.833,8.833,0,0,0,3.717-1.667Zm-5.521-14.9a8.959,8.959,0,0,0-3.776,1.675l1.462.75A11.2,11.2,0,0,1,2640.8,880.85Zm-.076,17.281a11.981,11.981,0,0,1-2.24-2.388l-1.455.748A8.567,8.567,0,0,0,2640.724,898.131Zm7.022-15.607a8.589,8.589,0,0,0-3.7-1.645,11.944,11.944,0,0,1,2.252,2.393Z" transform="translate(-2632.74 -879.866)" fill="#fff"/>
</svg>
