<svg xmlns="http://www.w3.org/2000/svg" width="51" height="51" viewBox="0 0 51 51">
  <g id="Group_2107" data-name="Group 2107" transform="translate(12951 16737)">
    <g id="Rectangle_762" data-name="Rectangle 762" transform="translate(-12951 -16737)" fill="none" stroke="#fff" stroke-width="1">
      <rect width="51" height="51" rx="25.5" stroke="none"/>
      <rect x="0.5" y="0.5" width="50" height="50" rx="25" fill="none"/>
    </g>
    <path id="Path_4804" data-name="Path 4804" d="M107.414,90.382a4.326,4.326,0,0,1-4.017-3,4.26,4.26,0,0,0,1.851-.056.254.254,0,0,0,.061-.028,4.3,4.3,0,0,1-2.8-1.983,4.2,4.2,0,0,1-.634-2.295,4.257,4.257,0,0,0,1.923.522,4.336,4.336,0,0,1-1.778-2.62,4.265,4.265,0,0,1,.463-3.125,12.358,12.358,0,0,0,8.906,4.512c-.024-.171-.05-.321-.069-.474a4.316,4.316,0,0,1,7.34-3.569.224.224,0,0,0,.23.069,8.772,8.772,0,0,0,2.512-.968.329.329,0,0,1,.058-.028l.028,0a4.421,4.421,0,0,1-1.849,2.349,8.35,8.35,0,0,0,2.4-.647l.019.019c-.165.217-.325.439-.5.648a8.463,8.463,0,0,1-1.568,1.492.143.143,0,0,0-.072.136,11.781,11.781,0,0,1-.08,1.916,12.712,12.712,0,0,1-1.113,3.844,12.406,12.406,0,0,1-2.334,3.406,11.563,11.563,0,0,1-5.935,3.307,12.914,12.914,0,0,1-2.406.284,12.2,12.2,0,0,1-6.908-1.854c-.028-.017-.056-.033-.1-.065a8.761,8.761,0,0,0,4.32-.595A8.672,8.672,0,0,0,107.414,90.382Z" transform="translate(-13037.041 -16796.998)" fill="#fff" fill-rule="evenodd"/>
  </g>
</svg>
